<svg width="1242" height="285" viewBox="0 0 1242 285" fill="none" xmlns="http://www.w3.org/2000/svg">
<path d="M10 257L78.7061 203.017C132.922 160.418 210.007 160.898 264.393 203.28V203.28C314.54 242.36 387.247 236.155 429.163 188.354L439.493 176.573C473.925 137.307 532.774 131.148 574.589 162.436L587.963 172.442C620.366 196.687 664.188 199.012 698.974 178.331L741.939 152.788C779.024 130.741 826.467 137.564 855.835 169.17L869.846 184.249C915.061 232.909 994.906 221.717 1025 162.5V162.5C1037.5 137 1058 112.5 1073.5 114.5" stroke="#CFCFCF" stroke-width="20" stroke-linecap="round" stroke-linejoin="round"/>
<path d="M10 257L78.7061 203.017C132.922 160.418 210.007 160.898 264.393 203.28V203.28C314.54 242.36 387.247 236.155 429.163 188.354L439.493 176.573C473.925 137.307 532.774 131.148 574.589 162.436L587.963 172.442C620.366 196.687 664.188 199.012 698.974 178.331L741.939 152.788C779.024 130.741 826.467 137.564 855.835 169.17L869.846 184.249C915.061 232.909 994.906 221.717 1025 162.5V162.5C1027 158 1040.5 130.5 1056.5 120.5" stroke="white" stroke-linecap="round" stroke-linejoin="round" stroke-dasharray="10 10"/>
<circle cx="10" cy="257" r="9" fill="white" stroke="#B0AFAF" stroke-width="2"/>
<circle cx="512" cy="142" r="13" fill="white" stroke="#00A1FF" stroke-width="4"/>
<path d="M515 142C515 143.657 513.657 145 512 145C510.343 145 509 143.657 509 142C509 140.343 510.343 139 512 139C513.657 139 515 140.343 515 142Z" fill="#00A1FF"/>
<path fill-rule="evenodd" clip-rule="evenodd" d="M513.823 115.585C513.295 116.426 513 117.388 513 118.381V140.005C513 140.557 512.552 141.005 512 141.005C511.448 141.005 511 140.557 511 140.005V118.381C511 117.388 510.705 116.426 510.177 115.585C506.158 109.188 497 92.4096 497 85.8395C497 77.6439 503.716 71 512 71C520.284 71 527 77.6439 527 85.8395C527 92.4096 517.842 109.188 513.823 115.585ZM512 105C518.627 105 524 92.2294 524 86.0994C524 79.9694 518.627 75 512 75C505.373 75 500 79.9694 500 86.0994C500 92.2294 505.373 105 512 105Z" fill="#00A1FF"/>
<circle cx="642" cy="192" r="13" fill="white" stroke="#00A1FF" stroke-width="4"/>
<path d="M645 192C645 193.657 643.657 195 642 195C640.343 195 639 193.657 639 192C639 190.343 640.343 189 642 189C643.657 189 645 190.343 645 192Z" fill="#00A1FF"/>
<path fill-rule="evenodd" clip-rule="evenodd" d="M643.823 165.585C643.295 166.426 643 167.388 643 168.381V190.005C643 190.557 642.552 191.005 642 191.005C641.448 191.005 641 190.557 641 190.005V168.381C641 167.388 640.705 166.426 640.177 165.585C636.158 159.188 627 142.41 627 135.839C627 127.644 633.716 121 642 121C650.284 121 657 127.644 657 135.839C657 142.41 647.842 159.188 643.823 165.585ZM642 155C648.627 155 654 142.229 654 136.099C654 129.969 648.627 125 642 125C635.373 125 630 129.969 630 136.099C630 142.229 635.373 155 642 155Z" fill="#00A1FF"/>
<circle cx="788" cy="141" r="13" fill="white" stroke="#00A1FF" stroke-width="4"/>
<path d="M791 141C791 142.657 789.657 144 788 144C786.343 144 785 142.657 785 141C785 139.343 786.343 138 788 138C789.657 138 791 139.343 791 141Z" fill="#00A1FF"/>
<path fill-rule="evenodd" clip-rule="evenodd" d="M789.823 114.585C789.295 115.426 789 116.388 789 117.381V139.005C789 139.557 788.552 140.005 788 140.005C787.448 140.005 787 139.557 787 139.005V117.381C787 116.388 786.705 115.426 786.177 114.585C782.158 108.188 773 91.4096 773 84.8395C773 76.6439 779.716 70 788 70C796.284 70 803 76.6439 803 84.8395C803 91.4096 793.842 108.188 789.823 114.585ZM788 104C794.627 104 800 91.2294 800 85.0994C800 78.9694 794.627 74 788 74C781.373 74 776 78.9694 776 85.0994C776 91.2294 781.373 104 788 104Z" fill="#00A1FF"/>
<circle cx="933" cy="214" r="13" fill="white" stroke="#00A1FF" stroke-width="4"/>
<path d="M936 214C936 215.657 934.657 217 933 217C931.343 217 930 215.657 930 214C930 212.343 931.343 211 933 211C934.657 211 936 212.343 936 214Z" fill="#00A1FF"/>
<path fill-rule="evenodd" clip-rule="evenodd" d="M934.823 187.585C934.295 188.426 934 189.388 934 190.381V212.005C934 212.557 933.552 213.005 933 213.005C932.448 213.005 932 212.557 932 212.005V190.381C932 189.388 931.705 188.426 931.177 187.585C927.158 181.188 918 164.41 918 157.839C918 149.644 924.716 143 933 143C941.284 143 948 149.644 948 157.839C948 164.41 938.842 181.188 934.823 187.585ZM933 177C939.627 177 945 164.229 945 158.099C945 151.969 939.627 147 933 147C926.373 147 921 151.969 921 158.099C921 164.229 926.373 177 933 177Z" fill="#00A1FF"/>
<circle cx="333" cy="228" r="13" fill="white" stroke="#00A1FF" stroke-width="4"/>
<path d="M336 228C336 229.657 334.657 231 333 231C331.343 231 330 229.657 330 228C330 226.343 331.343 225 333 225C334.657 225 336 226.343 336 228Z" fill="#00A1FF"/>
<path fill-rule="evenodd" clip-rule="evenodd" d="M334.823 201.585C334.295 202.426 334 203.388 334 204.381V226.005C334 226.557 333.552 227.005 333 227.005C332.448 227.005 332 226.557 332 226.005V204.381C332 203.388 331.705 202.426 331.177 201.585C327.158 195.188 318 178.41 318 171.839C318 163.644 324.716 157 333 157C341.284 157 348 163.644 348 171.839C348 178.41 338.842 195.188 334.823 201.585ZM333 191C339.627 191 345 178.229 345 172.099C345 165.969 339.627 161 333 161C326.373 161 321 165.969 321 172.099C321 178.229 326.373 191 333 191Z" fill="#00A1FF"/>
<circle cx="170" cy="171" r="13" fill="white" stroke="#00A1FF" stroke-width="4"/>
<path d="M173 171C173 172.657 171.657 174 170 174C168.343 174 167 172.657 167 171C167 169.343 168.343 168 170 168C171.657 168 173 169.343 173 171Z" fill="#00A1FF"/>
<path fill-rule="evenodd" clip-rule="evenodd" d="M171.823 144.585C171.295 145.426 171 146.388 171 147.381V169.005C171 169.557 170.552 170.005 170 170.005C169.448 170.005 169 169.557 169 169.005V147.381C169 146.388 168.705 145.426 168.177 144.585C164.158 138.188 155 121.41 155 114.839C155 106.644 161.716 100 170 100C178.284 100 185 106.644 185 114.839C185 121.41 175.842 138.188 171.823 144.585ZM170 134C176.627 134 182 121.229 182 115.099C182 108.969 176.627 104 170 104C163.373 104 158 108.969 158 115.099C158 121.229 163.373 134 170 134Z" fill="#00A1FF"/>
<path d="M1081.42 196.226C1080.25 193.076 1081.89 189.577 1085.06 188.466L1178.96 155.604C1182.02 154.537 1185.36 156.078 1186.54 159.089L1191.9 172.845L1094.15 210.158C1090.51 211.544 1086.45 209.706 1085.09 206.064L1081.42 196.226Z" fill="#FAFFDB"/>
<line y1="-0.05" x2="107.713" y2="-0.05" transform="matrix(0.937683 -0.347492 0.349212 0.937044 1086.46 194.974)" stroke="#E1E5C5" stroke-width="0.1"/>
<line y1="-0.05" x2="107.713" y2="-0.05" transform="matrix(0.937683 -0.347492 0.349212 0.937044 1085.56 196.558)" stroke="#E1E5C5" stroke-width="0.1"/>
<line y1="-0.05" x2="107.713" y2="-0.05" transform="matrix(0.937683 -0.347492 0.349212 0.937044 1085.92 197.788)" stroke="#E1E5C5" stroke-width="0.1"/>
<line y1="-0.05" x2="107.713" y2="-0.05" transform="matrix(0.937683 -0.347492 0.349212 0.937044 1086.27 199.019)" stroke="#E1E5C5" stroke-width="0.1"/>
<line y1="-0.05" x2="107.713" y2="-0.05" transform="matrix(0.937683 -0.347492 0.349212 0.937044 1086.62 200.249)" stroke="#E1E5C5" stroke-width="0.1"/>
<line y1="-0.05" x2="107.713" y2="-0.05" transform="matrix(0.937683 -0.347492 0.349212 0.937044 1086.97 201.479)" stroke="#E1E5C5" stroke-width="0.1"/>
<line y1="-0.05" x2="107.713" y2="-0.05" transform="matrix(0.937683 -0.347492 0.349212 0.937044 1087.32 202.708)" stroke="#E1E5C5" stroke-width="0.1"/>
<line y1="-0.05" x2="107.713" y2="-0.05" transform="matrix(0.937683 -0.347492 0.349212 0.937044 1087.67 203.938)" stroke="#E1E5C5" stroke-width="0.1"/>
<line y1="-0.05" x2="107.713" y2="-0.05" transform="matrix(0.937683 -0.347492 0.349212 0.937044 1088.02 205.169)" stroke="#E1E5C5" stroke-width="0.1"/>
<line y1="-0.05" x2="107.713" y2="-0.05" transform="matrix(0.937683 -0.347492 0.349212 0.937044 1088.37 206.399)" stroke="#E1E5C5" stroke-width="0.1"/>
<line y1="-0.05" x2="107.713" y2="-0.05" transform="matrix(0.937683 -0.347492 0.349212 0.937044 1088.72 207.63)" stroke="#E1E5C5" stroke-width="0.1"/>
<path d="M1184.08 154.837C1183.75 153.857 1184.76 152.963 1185.69 153.407C1185.98 153.544 1186.2 153.791 1186.3 154.093L1192.67 173.113C1191.72 173.872 1190.3 173.455 1189.92 172.303L1184.08 154.837Z" fill="#FAFFDB"/>
<path d="M1038.34 80.9134C1037.19 77.8085 1038.76 74.353 1041.87 73.1952L1136.71 37.8297C1139.82 36.6704 1143.28 38.2549 1144.44 41.3663L1186.76 155.554L1089.04 192.692C1087.71 193.196 1086.61 194.153 1085.92 195.393L1083 200.671L1038.34 80.9134Z" fill="#00A1FF"/>
<path d="M1038.31 80.9251C1037.16 77.8202 1038.74 74.3647 1041.84 73.207L1048.68 70.6555L1093.3 190.403L1086.33 193.434C1083.7 194.582 1082.24 197.441 1082.87 200.249L1082.97 200.683L1038.31 80.9251Z" fill="#0071B2"/>
<mask id="mask0_1_4873" style="mask-type:alpha" maskUnits="userSpaceOnUse" x="1184" y="153" width="9" height="21">
<path d="M1184.12 154.777C1183.8 153.823 1184.79 152.96 1185.69 153.409C1185.96 153.542 1186.16 153.777 1186.26 154.061L1192.64 173.109C1191.73 173.851 1190.37 173.458 1189.99 172.349L1184.12 154.777Z" fill="#FAFFDB"/>
</mask>
<g mask="url(#mask0_1_4873)">
<line y1="-0.05" x2="107.713" y2="-0.05" transform="matrix(0.0891666 -0.996017 0.996179 0.0873392 1181.28 175.908)" stroke="#E1E5C5" stroke-width="0.1"/>
<line y1="-0.05" x2="107.713" y2="-0.05" transform="matrix(0.0891666 -0.996017 0.996179 0.0873392 1182.33 177.394)" stroke="#E1E5C5" stroke-width="0.1"/>
<line y1="-0.05" x2="107.713" y2="-0.05" transform="matrix(0.0891666 -0.996017 0.996179 0.0873392 1183.59 177.607)" stroke="#E1E5C5" stroke-width="0.1"/>
<line y1="-0.05" x2="107.713" y2="-0.05" transform="matrix(0.0891666 -0.996017 0.996179 0.0873392 1184.85 177.818)" stroke="#E1E5C5" stroke-width="0.1"/>
<line y1="-0.05" x2="107.713" y2="-0.05" transform="matrix(0.0891666 -0.996017 0.996179 0.0873392 1186.11 178.029)" stroke="#E1E5C5" stroke-width="0.1"/>
<line y1="-0.05" x2="107.713" y2="-0.05" transform="matrix(0.0891666 -0.996017 0.996179 0.0873392 1187.37 178.242)" stroke="#E1E5C5" stroke-width="0.1"/>
<line y1="-0.05" x2="107.713" y2="-0.05" transform="matrix(0.0891666 -0.996017 0.996179 0.0873392 1188.64 178.453)" stroke="#E1E5C5" stroke-width="0.1"/>
<line y1="-0.05" x2="107.713" y2="-0.05" transform="matrix(0.0891666 -0.996017 0.996179 0.0873392 1189.9 178.666)" stroke="#E1E5C5" stroke-width="0.1"/>
<line y1="-0.05" x2="107.713" y2="-0.05" transform="matrix(0.0891666 -0.996017 0.996179 0.0873392 1191.16 178.876)" stroke="#E1E5C5" stroke-width="0.1"/>
<line y1="-0.05" x2="107.713" y2="-0.05" transform="matrix(0.0891666 -0.996017 0.996179 0.0873392 1192.42 179.087)" stroke="#E1E5C5" stroke-width="0.1"/>
<line y1="-0.05" x2="107.713" y2="-0.05" transform="matrix(0.0891666 -0.996017 0.996179 0.0873392 1181.63 177.138)" stroke="#E1E5C5" stroke-width="0.1"/>
<line y1="-0.05" x2="107.713" y2="-0.05" transform="matrix(0.0891666 -0.996017 0.996179 0.0873392 1182.68 178.624)" stroke="#E1E5C5" stroke-width="0.1"/>
<line y1="-0.05" x2="107.713" y2="-0.05" transform="matrix(0.0891666 -0.996017 0.996179 0.0873392 1183.94 178.837)" stroke="#E1E5C5" stroke-width="0.1"/>
<line y1="-0.05" x2="107.713" y2="-0.05" transform="matrix(0.0891666 -0.996017 0.996179 0.0873392 1185.2 179.048)" stroke="#E1E5C5" stroke-width="0.1"/>
<line y1="-0.05" x2="107.713" y2="-0.05" transform="matrix(0.0891666 -0.996017 0.996179 0.0873392 1186.46 179.259)" stroke="#E1E5C5" stroke-width="0.1"/>
<line y1="-0.05" x2="107.713" y2="-0.05" transform="matrix(0.0891666 -0.996017 0.996179 0.0873392 1187.73 179.472)" stroke="#E1E5C5" stroke-width="0.1"/>
<line y1="-0.05" x2="107.713" y2="-0.05" transform="matrix(0.0891666 -0.996017 0.996179 0.0873392 1188.99 179.683)" stroke="#E1E5C5" stroke-width="0.1"/>
<line y1="-0.05" x2="107.713" y2="-0.05" transform="matrix(0.0891666 -0.996017 0.996179 0.0873392 1190.25 179.896)" stroke="#E1E5C5" stroke-width="0.1"/>
<line y1="-0.05" x2="107.713" y2="-0.05" transform="matrix(0.0891666 -0.996017 0.996179 0.0873392 1191.51 180.106)" stroke="#E1E5C5" stroke-width="0.1"/>
<line y1="-0.05" x2="107.713" y2="-0.05" transform="matrix(0.0891666 -0.996017 0.996179 0.0873392 1181.98 178.368)" stroke="#E1E5C5" stroke-width="0.1"/>
<line y1="-0.05" x2="107.713" y2="-0.05" transform="matrix(0.0891666 -0.996017 0.996179 0.0873392 1183.03 179.854)" stroke="#E1E5C5" stroke-width="0.1"/>
<line y1="-0.05" x2="107.713" y2="-0.05" transform="matrix(0.0891666 -0.996017 0.996179 0.0873392 1184.29 180.067)" stroke="#E1E5C5" stroke-width="0.1"/>
<line y1="-0.05" x2="107.713" y2="-0.05" transform="matrix(0.0891666 -0.996017 0.996179 0.0873392 1185.55 180.278)" stroke="#E1E5C5" stroke-width="0.1"/>
<line y1="-0.05" x2="107.713" y2="-0.05" transform="matrix(0.0891666 -0.996017 0.996179 0.0873392 1186.82 180.489)" stroke="#E1E5C5" stroke-width="0.1"/>
<line y1="-0.05" x2="107.713" y2="-0.05" transform="matrix(0.0891666 -0.996017 0.996179 0.0873392 1188.08 180.702)" stroke="#E1E5C5" stroke-width="0.1"/>
<line y1="-0.05" x2="107.713" y2="-0.05" transform="matrix(0.0891666 -0.996017 0.996179 0.0873392 1189.34 180.913)" stroke="#E1E5C5" stroke-width="0.1"/>
<line y1="-0.05" x2="107.713" y2="-0.05" transform="matrix(0.0891666 -0.996017 0.996179 0.0873392 1190.6 181.126)" stroke="#E1E5C5" stroke-width="0.1"/>
<line y1="-0.05" x2="107.713" y2="-0.05" transform="matrix(0.0891666 -0.996017 0.996179 0.0873392 1191.86 181.337)" stroke="#E1E5C5" stroke-width="0.1"/>
</g>
<path d="M1185.78 154.832L1088.05 191.273C1084.94 192.431 1083.36 195.887 1084.52 198.992L1086.78 205.056C1087.94 208.161 1091.4 209.739 1094.5 208.582L1192.23 172.14" stroke="#2DC0C5" stroke-width="4" stroke-linecap="round"/>
<path d="M1098.89 196.584L1113.22 191.059L1118.74 205.38L1109.96 203.185L1104.42 210.906L1098.89 196.584Z" fill="#F3A023"/>
<path d="M1070.3 98.6444C1069.09 95.5269 1070.67 92.0244 1073.8 90.8565L1133.87 68.458C1136.99 67.295 1140.46 68.8932 1141.6 72.0193L1146.53 85.5046C1147.66 88.5978 1146.09 92.0244 1143.01 93.1822L1083.24 115.625C1080.16 116.781 1076.73 115.242 1075.54 112.173L1070.3 98.6444Z" fill="#0071B2"/>
<path d="M1075.85 102.237L1073.36 95.5487L1078.34 93.6909L1080.84 100.38L1080.07 100.666L1077.83 94.6638L1074.39 95.9449L1076.63 101.947L1075.85 102.237ZM1079.9 95.0157L1080.72 94.712L1082.91 97.2089C1083.04 97.3559 1083.16 97.4984 1083.27 97.6365C1083.39 97.7716 1083.49 97.9028 1083.59 98.0303C1083.68 98.1577 1083.77 98.284 1083.84 98.4091L1083.87 98.3971C1083.86 98.2287 1083.85 98.0062 1083.83 97.7296C1083.82 97.4499 1083.81 97.1634 1083.81 96.87L1083.77 93.5741L1084.59 93.2688L1084.55 99.8334C1084.55 100.185 1084.51 100.504 1084.44 100.79C1084.38 101.076 1084.26 101.321 1084.08 101.525C1083.91 101.732 1083.67 101.893 1083.36 102.009C1083.21 102.063 1083.08 102.101 1082.97 102.123C1082.85 102.149 1082.75 102.166 1082.66 102.174L1082.44 101.566C1082.51 101.556 1082.59 101.539 1082.69 101.516C1082.8 101.492 1082.9 101.461 1083 101.422C1083.19 101.352 1083.34 101.254 1083.45 101.13C1083.56 101.007 1083.65 100.859 1083.7 100.684C1083.75 100.509 1083.77 100.314 1083.77 100.097L1083.79 99.2902L1079.9 95.0157ZM1089.05 92.341L1087.4 92.9568L1089.03 97.326L1088.28 97.6058L1086.65 93.2366L1085.02 93.8439L1084.78 93.1988L1088.81 91.6959L1089.05 92.341ZM1091.7 90.5143C1092.12 90.355 1092.52 90.3131 1092.9 90.3885C1093.28 90.4639 1093.61 90.6422 1093.9 90.9235C1094.19 91.2018 1094.41 91.5682 1094.58 92.0227L1094.76 92.4939L1091.3 93.7853C1091.52 94.3706 1091.84 94.7643 1092.24 94.9666C1092.64 95.1689 1093.09 95.1739 1093.61 94.9817C1093.92 94.8635 1094.19 94.7298 1094.42 94.5809C1094.64 94.432 1094.86 94.2522 1095.08 94.0415L1095.33 94.7095C1095.12 94.9167 1094.9 95.0929 1094.67 95.238C1094.44 95.382 1094.16 95.5171 1093.82 95.6433C1093.34 95.823 1092.88 95.8824 1092.45 95.8214C1092.01 95.7562 1091.63 95.5699 1091.29 95.2626C1090.95 94.9553 1090.68 94.5256 1090.47 93.9735C1090.27 93.4336 1090.18 92.9334 1090.22 92.4729C1090.25 92.0081 1090.4 91.6076 1090.64 91.2712C1090.9 90.9338 1091.25 90.6814 1091.7 90.5143ZM1091.92 91.1399C1091.51 91.2912 1091.24 91.5444 1091.1 91.8996C1090.96 92.2548 1090.95 92.6788 1091.08 93.1717L1093.74 92.1822C1093.62 91.8845 1093.48 91.6398 1093.3 91.4482C1093.13 91.2524 1092.93 91.1261 1092.7 91.0693C1092.47 91.0095 1092.21 91.033 1091.92 91.1399ZM1099.52 89.1361C1099.63 89.4502 1099.63 89.7299 1099.52 89.975C1099.4 90.2171 1099.2 90.4227 1098.94 90.5917L1098.95 90.6283C1099.28 90.5539 1099.59 90.5661 1099.89 90.6649C1100.18 90.7596 1100.4 90.993 1100.54 91.3651C1100.65 91.6518 1100.67 91.9305 1100.62 92.2013C1100.56 92.4721 1100.41 92.7246 1100.16 92.9589C1099.92 93.1931 1099.56 93.3978 1099.09 93.5729L1096.93 94.3781L1095.06 89.3638L1097.2 88.5654C1097.56 88.4312 1097.9 88.3541 1098.2 88.3341C1098.51 88.3099 1098.77 88.3598 1099 88.4836C1099.23 88.6075 1099.4 88.825 1099.52 89.1361ZM1099.75 91.6602C1099.64 91.3644 1099.45 91.1929 1099.17 91.146C1098.9 91.0978 1098.55 91.1534 1098.12 91.3126L1096.84 91.792L1097.46 93.4756L1098.77 92.9894C1099.19 92.8325 1099.49 92.649 1099.66 92.439C1099.83 92.2248 1099.86 91.9652 1099.75 91.6602ZM1098.77 89.5113C1098.69 89.2734 1098.53 89.1289 1098.32 89.0779C1098.1 89.0237 1097.79 89.0706 1097.39 89.2184L1096.06 89.7149L1096.6 91.156L1097.8 90.7091C1098.21 90.5555 1098.5 90.38 1098.67 90.1826C1098.83 89.9852 1098.87 89.7614 1098.77 89.5113ZM1105.7 88.2435C1105.85 88.6553 1105.93 89.0427 1105.95 89.4058C1105.96 89.7689 1105.91 90.0993 1105.79 90.397C1105.67 90.6948 1105.49 90.9566 1105.25 91.1824C1105.01 91.4041 1104.71 91.582 1104.35 91.7162C1104.01 91.8413 1103.68 91.8982 1103.36 91.887C1103.04 91.8715 1102.73 91.7906 1102.45 91.6441C1102.16 91.4965 1101.9 91.2821 1101.67 91.0009C1101.44 90.7185 1101.25 90.3714 1101.09 89.9597C1100.89 89.4107 1100.81 88.9093 1100.85 88.4556C1100.89 87.9989 1101.05 87.6056 1101.32 87.2758C1101.59 86.9418 1101.96 86.6855 1102.44 86.507C1102.9 86.3364 1103.34 86.2896 1103.76 86.3665C1104.18 86.4424 1104.55 86.6387 1104.89 86.9556C1105.22 87.2682 1105.49 87.6975 1105.7 88.2435ZM1101.88 89.6663C1102.03 90.0689 1102.21 90.3982 1102.43 90.6543C1102.65 90.9103 1102.9 91.0776 1103.18 91.1563C1103.46 91.2349 1103.78 91.2088 1104.13 91.078C1104.48 90.9484 1104.74 90.7612 1104.9 90.5165C1105.06 90.2707 1105.14 89.98 1105.14 89.6443C1105.14 89.3087 1105.06 88.9395 1104.91 88.5369C1104.76 88.1374 1104.58 87.8126 1104.36 87.5627C1104.15 87.3097 1103.9 87.1454 1103.62 87.0698C1103.34 86.9942 1103.02 87.0224 1102.66 87.1543C1102.14 87.3488 1101.82 87.6638 1101.71 88.0995C1101.6 88.534 1101.65 89.0562 1101.88 89.6663ZM1109.75 83.886L1111.38 88.2552L1112.1 87.9874L1112.99 90.3664L1112.25 90.6411L1111.6 88.9071L1108.05 90.231L1108.7 91.9649L1107.97 92.2362L1107.09 89.8571L1107.48 89.7104C1107.62 89.207 1107.69 88.6836 1107.71 88.1404C1107.72 87.5971 1107.68 87.048 1107.58 86.4931C1107.49 85.9351 1107.34 85.3897 1107.15 84.8567L1109.75 83.886ZM1109.24 84.7646L1108.05 85.2081C1108.19 85.6637 1108.29 86.141 1108.36 86.6403C1108.43 87.1384 1108.46 87.6276 1108.45 88.108C1108.44 88.5854 1108.38 89.0211 1108.27 89.4153L1110.64 88.5299L1109.24 84.7646ZM1112.19 82.9767L1113.37 86.129C1113.39 86.19 1113.42 86.2698 1113.45 86.3686C1113.48 86.4643 1113.52 86.5681 1113.55 86.6802C1113.58 86.7892 1113.62 86.8952 1113.65 86.9982C1113.68 87.0969 1113.71 87.1794 1113.73 87.2457L1114.88 81.9753L1115.81 81.6273L1117.68 86.6416L1116.97 86.906L1115.82 83.8316C1115.79 83.734 1115.74 83.6083 1115.69 83.4547C1115.63 83.3011 1115.58 83.1499 1115.54 83.0012C1115.49 82.8495 1115.45 82.7319 1115.42 82.6484L1114.28 87.9108L1113.34 88.2606L1111.47 83.2463L1112.19 82.9767ZM1121.08 80.3958L1119.43 81.0117L1121.06 85.3809L1120.31 85.6607L1118.68 81.2915L1117.05 81.8988L1116.81 81.2537L1120.84 79.7507L1121.08 80.3958ZM1123.73 78.5691C1124.16 78.4099 1124.56 78.368 1124.94 78.4434C1125.31 78.5187 1125.64 78.6971 1125.93 78.9784C1126.22 79.2567 1126.45 79.6231 1126.62 80.0775L1126.79 80.5488L1123.33 81.8402C1123.56 82.4254 1123.87 82.8192 1124.27 83.0215C1124.67 83.2238 1125.13 83.2288 1125.64 83.0366C1125.96 82.9183 1126.23 82.7847 1126.45 82.6358C1126.67 82.4868 1126.9 82.307 1127.12 82.0964L1127.36 82.7644C1127.15 82.9716 1126.93 83.1478 1126.7 83.2929C1126.47 83.4369 1126.19 83.572 1125.85 83.6982C1125.37 83.8779 1124.91 83.9373 1124.48 83.8762C1124.05 83.8111 1123.66 83.6248 1123.32 83.3175C1122.98 83.0101 1122.71 82.5804 1122.5 82.0284C1122.3 81.4885 1122.22 80.9883 1122.25 80.5277C1122.29 80.063 1122.43 79.6625 1122.68 79.3261C1122.93 78.9886 1123.28 78.7363 1123.73 78.5691ZM1123.95 79.1948C1123.55 79.346 1123.27 79.5993 1123.13 79.9545C1122.99 80.3097 1122.99 80.7337 1123.12 81.2266L1125.77 80.2371C1125.66 79.9393 1125.51 79.6947 1125.34 79.5031C1125.16 79.3073 1124.96 79.181 1124.73 79.1242C1124.5 79.0643 1124.24 79.0879 1123.95 79.1948ZM1132.73 81.0307L1131.95 81.319L1130.32 76.9406L1128.8 77.5087C1129.03 78.3214 1129.21 79.0276 1129.32 79.6271C1129.44 80.2224 1129.49 80.7247 1129.49 81.1338C1129.48 81.5388 1129.41 81.8622 1129.28 82.1038C1129.14 82.3413 1128.94 82.5107 1128.67 82.6119C1128.59 82.6426 1128.51 82.667 1128.43 82.6852C1128.35 82.7033 1128.28 82.7114 1128.22 82.7094L1128.01 82.1329C1128.05 82.1303 1128.1 82.1241 1128.14 82.1143C1128.19 82.1033 1128.24 82.0888 1128.29 82.0706C1128.43 82.0194 1128.53 81.9163 1128.6 81.7614C1128.67 81.6023 1128.71 81.3898 1128.72 81.1238C1128.73 80.8568 1128.7 80.5327 1128.64 80.1516C1128.58 79.7674 1128.49 79.3242 1128.36 78.8218C1128.24 78.3152 1128.09 77.7474 1127.9 77.1184L1130.86 76.0164L1132.73 81.0307ZM1133.99 77.2024L1135.53 76.6292C1135.96 76.4699 1136.33 76.3908 1136.66 76.3918C1136.98 76.3928 1137.25 76.4723 1137.47 76.6305C1137.69 76.7875 1137.86 77.0215 1137.98 77.3326C1138.09 77.6438 1138.12 77.9398 1138.07 78.2209C1138.02 78.5008 1137.87 78.7574 1137.63 78.9905C1137.39 79.2224 1137.04 79.4231 1136.58 79.5926L1134.33 80.4336L1132.46 75.4193L1133.22 75.1344L1133.99 77.2024ZM1137.23 77.6541C1137.11 77.3461 1136.92 77.1735 1136.66 77.1365C1136.4 77.0952 1136.07 77.1474 1135.68 77.2929L1134.23 77.8337L1134.86 79.5311L1136.32 78.9886C1136.68 78.8521 1136.96 78.6741 1137.13 78.4546C1137.31 78.2321 1137.34 77.9652 1137.23 77.6541ZM1099.92 96.3171L1100.65 96.0458L1102.09 99.9118C1102.14 100.058 1102.2 100.219 1102.26 100.394C1102.33 100.566 1102.38 100.735 1102.44 100.902C1102.49 101.069 1102.54 101.222 1102.58 101.359C1102.63 101.496 1102.66 101.602 1102.68 101.677L1102.72 101.663L1104.35 94.6657L1105.21 94.3467L1107.7 101.035L1106.97 101.307L1105.55 97.4865C1105.49 97.3249 1105.43 97.1529 1105.37 96.9707C1105.3 96.7854 1105.24 96.6062 1105.19 96.4331C1105.13 96.2589 1105.08 96.103 1105.04 95.9654C1105 95.8247 1104.97 95.7172 1104.94 95.6429L1104.9 95.6583L1103.28 102.685L1102.42 103.006L1099.92 96.3171ZM1114.32 98.5669L1113.38 98.9184L1109.04 96.6701L1110.3 100.065L1109.52 100.355L1107.03 93.666L1107.81 93.376L1109.02 96.6152L1110.81 92.2586L1111.7 91.9259L1109.95 96.278L1114.32 98.5669ZM1117.3 97.4564L1116.52 97.7481L1114.28 91.7456L1112.17 92.5303L1111.92 91.844L1116.9 89.9862L1117.16 90.6725L1115.06 91.4538L1117.3 97.4564Z" fill="white"/>
<path d="M1090.04 130.875C1088.83 127.755 1090.4 124.244 1093.54 123.074L1141.96 105.018C1145.08 103.854 1148.56 105.456 1149.7 108.586L1151.97 114.837C1153.1 117.93 1151.52 121.353 1148.44 122.509L1100.19 140.608C1097.12 141.761 1093.69 140.229 1092.5 137.169L1090.04 130.875Z" fill="#0071B2"/>
<path opacity="0.9" d="M1099.04 123.553C1099.73 123.296 1100.28 123.243 1100.7 123.396C1101.12 123.545 1101.43 123.871 1101.61 124.374C1101.7 124.601 1101.74 124.831 1101.74 125.064C1101.74 125.294 1101.69 125.517 1101.58 125.736C1101.47 125.951 1101.3 126.155 1101.06 126.346C1100.83 126.534 1100.52 126.701 1100.13 126.846L1099.47 127.089L1100.26 129.194L1099.64 129.426L1097.64 124.075L1099.04 123.553ZM1099.18 124.106L1098.46 124.373L1099.27 126.555L1099.86 126.338C1100.2 126.21 1100.47 126.068 1100.67 125.91C1100.87 125.751 1101 125.569 1101.05 125.362C1101.1 125.154 1101.08 124.913 1100.98 124.639C1100.85 124.283 1100.63 124.061 1100.34 123.972C1100.05 123.881 1099.66 123.926 1099.18 124.106ZM1101.92 124.003L1102.58 123.76L1104.33 125.758C1104.43 125.875 1104.53 125.989 1104.62 126.1C1104.71 126.208 1104.79 126.313 1104.87 126.415C1104.95 126.517 1105.02 126.618 1105.08 126.718L1105.1 126.708C1105.09 126.573 1105.08 126.395 1105.07 126.174C1105.06 125.95 1105.05 125.721 1105.05 125.486L1105.02 122.85L1105.67 122.605L1105.64 127.857C1105.64 128.138 1105.61 128.393 1105.56 128.623C1105.5 128.851 1105.41 129.047 1105.27 129.21C1105.13 129.376 1104.94 129.505 1104.69 129.598C1104.57 129.64 1104.47 129.671 1104.37 129.689C1104.28 129.71 1104.2 129.723 1104.13 129.73L1103.95 129.243C1104.01 129.235 1104.08 129.222 1104.16 129.204C1104.24 129.184 1104.32 129.159 1104.4 129.128C1104.55 129.072 1104.67 128.994 1104.76 128.894C1104.85 128.796 1104.92 128.677 1104.96 128.538C1105 128.398 1105.02 128.241 1105.02 128.068L1105.03 127.423L1101.92 124.003ZM1108.65 121.495L1109.32 121.245L1108.31 123.826L1110.96 125.204L1110.24 125.47L1107.66 124.115L1108.42 126.15L1107.81 126.378L1106.31 122.367L1106.92 122.139L1107.65 124.086L1108.65 121.495ZM1114.39 121.631C1114.51 121.961 1114.58 122.271 1114.59 122.561C1114.6 122.852 1114.56 123.116 1114.46 123.354C1114.37 123.592 1114.23 123.802 1114.03 123.982C1113.84 124.16 1113.6 124.302 1113.31 124.41C1113.04 124.51 1112.78 124.555 1112.52 124.546C1112.26 124.534 1112.02 124.469 1111.79 124.352C1111.56 124.234 1111.35 124.062 1111.17 123.837C1110.98 123.611 1110.83 123.334 1110.71 123.004C1110.54 122.565 1110.48 122.164 1110.51 121.801C1110.55 121.436 1110.67 121.121 1110.89 120.857C1111.1 120.59 1111.4 120.385 1111.79 120.242C1112.15 120.106 1112.5 120.068 1112.84 120.13C1113.17 120.19 1113.48 120.348 1113.74 120.601C1114.01 120.851 1114.23 121.195 1114.39 121.631ZM1111.34 122.77C1111.46 123.092 1111.6 123.355 1111.78 123.56C1111.95 123.765 1112.15 123.899 1112.38 123.962C1112.6 124.024 1112.86 124.004 1113.14 123.899C1113.42 123.795 1113.62 123.646 1113.75 123.45C1113.88 123.253 1113.95 123.021 1113.94 122.752C1113.94 122.483 1113.88 122.188 1113.76 121.866C1113.64 121.546 1113.5 121.287 1113.32 121.087C1113.15 120.884 1112.95 120.753 1112.73 120.692C1112.5 120.632 1112.25 120.654 1111.96 120.76C1111.55 120.916 1111.29 121.168 1111.2 121.516C1111.11 121.864 1111.16 122.282 1111.34 122.77ZM1118.26 119.059C1118.35 119.31 1118.35 119.534 1118.26 119.73C1118.16 119.924 1118.01 120.088 1117.8 120.224L1117.81 120.253C1118.07 120.193 1118.32 120.203 1118.56 120.282C1118.79 120.358 1118.97 120.545 1119.08 120.842C1119.16 121.072 1119.18 121.295 1119.14 121.511C1119.09 121.728 1118.97 121.93 1118.78 122.117C1118.58 122.305 1118.29 122.468 1117.92 122.609L1116.19 123.253L1114.69 119.241L1116.41 118.603C1116.7 118.495 1116.96 118.434 1117.21 118.418C1117.45 118.398 1117.67 118.438 1117.85 118.537C1118.03 118.636 1118.17 118.81 1118.26 119.059ZM1118.44 121.078C1118.36 120.842 1118.2 120.705 1117.98 120.667C1117.76 120.628 1117.49 120.673 1117.14 120.8L1116.12 121.184L1116.62 122.531L1117.66 122.142C1118 122.016 1118.23 121.869 1118.37 121.701C1118.51 121.53 1118.54 121.322 1118.44 121.078ZM1117.67 119.359C1117.59 119.169 1117.47 119.053 1117.3 119.012C1117.12 118.969 1116.88 119.007 1116.56 119.125L1115.5 119.522L1115.93 120.675L1116.88 120.317C1117.21 120.195 1117.45 120.054 1117.58 119.896C1117.71 119.738 1117.74 119.559 1117.67 119.359ZM1123.2 118.345C1123.33 118.674 1123.39 118.984 1123.4 119.275C1123.41 119.565 1123.37 119.83 1123.28 120.068C1123.18 120.306 1123.04 120.515 1122.85 120.696C1122.65 120.873 1122.41 121.016 1122.13 121.123C1121.86 121.223 1121.59 121.269 1121.33 121.26C1121.08 121.247 1120.83 121.183 1120.6 121.065C1120.38 120.947 1120.17 120.776 1119.98 120.551C1119.8 120.325 1119.64 120.047 1119.52 119.718C1119.36 119.279 1119.29 118.878 1119.33 118.515C1119.36 118.149 1119.48 117.835 1119.7 117.571C1119.92 117.304 1120.22 117.099 1120.6 116.956C1120.97 116.819 1121.32 116.782 1121.65 116.843C1121.99 116.904 1122.29 117.061 1122.56 117.315C1122.82 117.565 1123.04 117.908 1123.2 118.345ZM1120.15 119.483C1120.27 119.805 1120.42 120.069 1120.59 120.274C1120.76 120.478 1120.96 120.612 1121.19 120.675C1121.42 120.738 1121.67 120.717 1121.95 120.613C1122.23 120.509 1122.43 120.359 1122.56 120.163C1122.7 119.967 1122.76 119.734 1122.76 119.466C1122.76 119.197 1122.69 118.902 1122.57 118.58C1122.45 118.26 1122.31 118 1122.14 117.8C1121.96 117.598 1121.77 117.466 1121.54 117.406C1121.31 117.346 1121.06 117.368 1120.78 117.474C1120.36 117.629 1120.1 117.881 1120.01 118.23C1119.92 118.577 1119.97 118.995 1120.15 119.483ZM1126.45 114.859L1127.75 118.354L1128.33 118.14L1129.03 120.043L1128.45 120.263L1127.93 118.876L1125.09 119.935L1125.61 121.322L1125.02 121.539L1124.31 119.636L1124.63 119.519C1124.74 119.116 1124.8 118.697 1124.81 118.262C1124.82 117.828 1124.79 117.389 1124.71 116.945C1124.63 116.498 1124.52 116.062 1124.36 115.636L1126.45 114.859ZM1126.04 115.562L1125.09 115.917C1125.2 116.281 1125.28 116.663 1125.33 117.062C1125.39 117.461 1125.42 117.852 1125.41 118.237C1125.4 118.619 1125.35 118.967 1125.26 119.282L1127.16 118.574L1126.04 115.562ZM1130.95 117.833C1130.59 117.967 1130.24 118.012 1129.91 117.966C1129.58 117.92 1129.28 117.773 1129.01 117.525C1128.75 117.277 1128.53 116.922 1128.35 116.458C1128.17 115.973 1128.1 115.546 1128.15 115.179C1128.2 114.808 1128.34 114.495 1128.57 114.239C1128.8 113.984 1129.09 113.789 1129.46 113.653C1129.66 113.578 1129.86 113.527 1130.06 113.5C1130.26 113.469 1130.43 113.461 1130.58 113.478L1130.58 114.055C1130.44 114.051 1130.29 114.06 1130.11 114.081C1129.94 114.101 1129.78 114.137 1129.64 114.189C1129.36 114.293 1129.15 114.439 1129.01 114.628C1128.87 114.816 1128.8 115.043 1128.8 115.309C1128.79 115.575 1128.85 115.877 1128.98 116.216C1129.1 116.541 1129.25 116.801 1129.42 116.998C1129.6 117.193 1129.8 117.32 1130.02 117.376C1130.24 117.429 1130.48 117.406 1130.75 117.307C1130.96 117.228 1131.15 117.135 1131.3 117.027C1131.45 116.917 1131.59 116.805 1131.7 116.693L1131.91 117.234C1131.8 117.353 1131.67 117.461 1131.51 117.559C1131.37 117.657 1131.18 117.748 1130.95 117.833ZM1134.34 112.504L1133.02 112.996L1134.32 116.492L1133.72 116.715L1132.42 113.22L1131.12 113.706L1130.92 113.19L1134.15 111.988L1134.34 112.504ZM1138.51 111.509C1138.6 111.761 1138.6 111.984 1138.51 112.18C1138.41 112.374 1138.26 112.538 1138.04 112.674L1138.05 112.703C1138.32 112.643 1138.57 112.653 1138.8 112.732C1139.04 112.808 1139.21 112.995 1139.32 113.292C1139.41 113.522 1139.43 113.745 1139.39 113.961C1139.34 114.178 1139.22 114.38 1139.02 114.567C1138.83 114.755 1138.54 114.919 1138.17 115.059L1136.44 115.703L1134.94 111.691L1136.66 111.053C1136.94 110.945 1137.21 110.884 1137.45 110.868C1137.7 110.848 1137.91 110.888 1138.09 110.987C1138.28 111.086 1138.41 111.26 1138.51 111.509ZM1138.69 113.528C1138.6 113.292 1138.45 113.155 1138.23 113.117C1138.01 113.079 1137.73 113.123 1137.39 113.25L1136.36 113.634L1136.87 114.981L1137.91 114.592C1138.24 114.466 1138.48 114.32 1138.62 114.152C1138.76 113.98 1138.78 113.772 1138.69 113.528ZM1137.91 111.809C1137.84 111.619 1137.72 111.503 1137.55 111.463C1137.37 111.419 1137.13 111.457 1136.81 111.575L1135.74 111.972L1136.17 113.125L1137.13 112.768C1137.46 112.645 1137.69 112.504 1137.83 112.346C1137.96 112.188 1137.99 112.009 1137.91 111.809ZM1143.45 110.795C1143.57 111.125 1143.64 111.434 1143.65 111.725C1143.66 112.015 1143.62 112.28 1143.53 112.518C1143.43 112.756 1143.29 112.966 1143.09 113.146C1142.9 113.324 1142.66 113.466 1142.37 113.573C1142.1 113.673 1141.84 113.719 1141.58 113.71C1141.32 113.698 1141.08 113.633 1140.85 113.516C1140.62 113.398 1140.42 113.226 1140.23 113.001C1140.04 112.775 1139.89 112.497 1139.77 112.168C1139.6 111.729 1139.54 111.328 1139.57 110.965C1139.61 110.599 1139.73 110.285 1139.95 110.021C1140.16 109.754 1140.46 109.549 1140.85 109.406C1141.21 109.269 1141.56 109.232 1141.9 109.294C1142.24 109.354 1142.54 109.511 1142.8 109.765C1143.07 110.015 1143.29 110.358 1143.45 110.795ZM1140.4 111.933C1140.52 112.255 1140.67 112.519 1140.84 112.724C1141.01 112.929 1141.21 113.062 1141.44 113.125C1141.67 113.188 1141.92 113.167 1142.2 113.063C1142.48 112.959 1142.68 112.809 1142.81 112.614C1142.94 112.417 1143.01 112.184 1143.01 111.916C1143 111.647 1142.94 111.352 1142.82 111.03C1142.7 110.71 1142.56 110.45 1142.38 110.25C1142.21 110.048 1142.01 109.917 1141.79 109.856C1141.56 109.796 1141.31 109.818 1141.02 109.924C1140.61 110.079 1140.35 110.331 1140.26 110.68C1140.17 111.028 1140.22 111.445 1140.4 111.933ZM1104.75 129.569L1105.36 131.195C1105.77 131.08 1106.15 131.055 1106.51 131.118C1106.87 131.179 1107.19 131.326 1107.46 131.561C1107.73 131.795 1107.95 132.116 1108.1 132.523C1108.25 132.923 1108.3 133.302 1108.25 133.659C1108.21 134.015 1108.07 134.334 1107.84 134.618C1107.61 134.9 1107.3 135.135 1106.9 135.323L1107.55 137.065L1106.95 137.286L1106.3 135.544C1105.89 135.663 1105.51 135.692 1105.15 135.632C1104.79 135.568 1104.48 135.417 1104.2 135.181C1103.93 134.944 1103.72 134.622 1103.56 134.214C1103.41 133.807 1103.36 133.426 1103.41 133.073C1103.45 132.716 1103.59 132.397 1103.82 132.116C1104.06 131.833 1104.37 131.597 1104.78 131.409L1104.18 129.784L1104.75 129.569ZM1104.97 131.914C1104.67 132.056 1104.44 132.229 1104.29 132.433C1104.14 132.637 1104.06 132.869 1104.04 133.127C1104.03 133.384 1104.08 133.668 1104.2 133.978C1104.31 134.288 1104.46 134.537 1104.64 134.725C1104.82 134.911 1105.04 135.031 1105.29 135.086C1105.53 135.14 1105.82 135.125 1106.14 135.04L1104.97 131.914ZM1105.55 131.707L1106.71 134.825C1107.01 134.679 1107.23 134.503 1107.38 134.298C1107.53 134.091 1107.61 133.859 1107.62 133.602C1107.64 133.343 1107.59 133.062 1107.47 132.757C1107.3 132.293 1107.05 131.972 1106.74 131.794C1106.41 131.613 1106.02 131.584 1105.55 131.707ZM1109.89 129.496C1110.37 129.318 1110.76 129.293 1111.07 129.421C1111.39 129.55 1111.63 129.849 1111.81 130.32L1112.82 133.047L1112.38 133.212L1112.04 132.663L1112.01 132.674C1111.95 132.862 1111.88 133.029 1111.8 133.174C1111.71 133.317 1111.6 133.445 1111.46 133.556C1111.32 133.664 1111.13 133.761 1110.9 133.847C1110.65 133.938 1110.42 133.977 1110.2 133.962C1109.98 133.947 1109.78 133.873 1109.61 133.741C1109.44 133.608 1109.3 133.408 1109.2 133.142C1109.05 132.742 1109.1 132.375 1109.33 132.042C1109.57 131.709 1110.01 131.412 1110.65 131.15L1111.33 130.863L1111.24 130.618C1111.11 130.272 1110.95 130.057 1110.75 129.973C1110.55 129.889 1110.31 129.898 1110.04 129.999C1109.83 130.077 1109.64 130.182 1109.47 130.314C1109.31 130.446 1109.15 130.586 1109.01 130.732L1108.65 130.341C1108.8 130.181 1108.98 130.024 1109.19 129.871C1109.4 129.718 1109.63 129.593 1109.89 129.496ZM1111.48 131.294L1110.88 131.548C1110.39 131.754 1110.07 131.967 1109.92 132.187C1109.77 132.408 1109.74 132.65 1109.84 132.913C1109.92 133.143 1110.06 133.286 1110.24 133.344C1110.42 133.402 1110.62 133.388 1110.85 133.303C1111.21 133.17 1111.46 132.962 1111.61 132.68C1111.77 132.398 1111.77 132.059 1111.62 131.664L1111.48 131.294ZM1114.92 127.697L1115.59 127.447L1114.58 130.029L1117.22 131.406L1116.51 131.673L1113.93 130.317L1114.69 132.352L1114.07 132.58L1112.58 128.569L1113.19 128.341L1113.92 130.288L1114.92 127.697ZM1115.82 127.361L1116.47 127.118L1118.22 129.115C1118.32 129.233 1118.42 129.347 1118.51 129.457C1118.6 129.566 1118.69 129.671 1118.76 129.773C1118.84 129.874 1118.91 129.975 1118.97 130.076L1118.99 130.066C1118.98 129.931 1118.97 129.753 1118.96 129.532C1118.95 129.308 1118.94 129.079 1118.94 128.844L1118.91 126.208L1119.57 125.963L1119.53 131.215C1119.53 131.496 1119.51 131.751 1119.45 131.981C1119.4 132.209 1119.3 132.405 1119.16 132.568C1119.02 132.734 1118.83 132.863 1118.58 132.956C1118.46 132.998 1118.36 133.029 1118.27 133.047C1118.17 133.067 1118.09 133.081 1118.02 133.088L1117.84 132.601C1117.9 132.593 1117.97 132.58 1118.05 132.561C1118.13 132.542 1118.21 132.517 1118.3 132.486C1118.45 132.43 1118.57 132.352 1118.65 132.252C1118.75 132.154 1118.81 132.035 1118.85 131.895C1118.89 131.756 1118.91 131.599 1118.91 131.426L1118.92 130.78L1115.82 127.361ZM1124.71 128.614L1124.09 128.845L1122.79 125.342L1121.57 125.796C1121.75 126.447 1121.89 127.012 1121.99 127.491C1122.08 127.967 1122.12 128.369 1122.12 128.697C1122.11 129.021 1122.06 129.279 1121.95 129.473C1121.84 129.663 1121.68 129.798 1121.46 129.879C1121.4 129.904 1121.33 129.923 1121.27 129.938C1121.21 129.952 1121.16 129.959 1121.11 129.957L1120.94 129.496C1120.97 129.494 1121.01 129.489 1121.04 129.481C1121.08 129.472 1121.12 129.461 1121.16 129.446C1121.27 129.405 1121.35 129.323 1121.41 129.199C1121.47 129.071 1121.5 128.901 1121.5 128.689C1121.51 128.475 1121.49 128.216 1121.44 127.911C1121.39 127.603 1121.32 127.249 1121.22 126.847C1121.12 126.442 1121 125.987 1120.85 125.484L1123.21 124.603L1124.71 128.614ZM1125.72 125.551L1126.95 125.093C1127.29 124.965 1127.59 124.902 1127.85 124.903C1128.11 124.904 1128.33 124.967 1128.5 125.094C1128.68 125.219 1128.82 125.407 1128.91 125.656C1129 125.905 1129.03 126.141 1128.98 126.366C1128.94 126.59 1128.82 126.795 1128.63 126.982C1128.44 127.167 1128.16 127.328 1127.8 127.464L1125.99 128.136L1124.5 124.125L1125.11 123.897L1125.72 125.551ZM1128.31 125.913C1128.22 125.666 1128.07 125.528 1127.85 125.499C1127.65 125.466 1127.38 125.507 1127.07 125.624L1125.91 126.056L1126.42 127.414L1127.58 126.98C1127.87 126.871 1128.09 126.729 1128.24 126.553C1128.38 126.375 1128.4 126.162 1128.31 125.913ZM1131.84 121.973L1130.52 122.466L1131.83 125.961L1131.22 126.185L1129.92 122.689L1128.62 123.175L1128.43 122.659L1131.65 121.457L1131.84 121.973ZM1133.96 120.512C1134.3 120.384 1134.62 120.351 1134.93 120.411C1135.23 120.471 1135.49 120.614 1135.72 120.839C1135.95 121.062 1136.14 121.355 1136.27 121.718L1136.41 122.095L1133.64 123.128C1133.82 123.597 1134.08 123.912 1134.39 124.073C1134.71 124.235 1135.08 124.239 1135.49 124.086C1135.74 123.991 1135.96 123.884 1136.14 123.765C1136.32 123.646 1136.49 123.502 1136.67 123.333L1136.87 123.868C1136.7 124.034 1136.52 124.174 1136.34 124.291C1136.16 124.406 1135.93 124.514 1135.66 124.615C1135.27 124.759 1134.91 124.806 1134.56 124.757C1134.22 124.705 1133.91 124.556 1133.64 124.31C1133.36 124.064 1133.15 123.721 1132.98 123.279C1132.82 122.847 1132.75 122.447 1132.78 122.078C1132.81 121.707 1132.92 121.386 1133.12 121.117C1133.32 120.847 1133.6 120.645 1133.96 120.512ZM1134.14 121.012C1133.82 121.133 1133.6 121.336 1133.48 121.62C1133.37 121.904 1133.37 122.243 1133.47 122.637L1135.59 121.846C1135.5 121.608 1135.39 121.412 1135.25 121.259C1135.11 121.102 1134.95 121.001 1134.76 120.956C1134.58 120.908 1134.37 120.927 1134.14 121.012ZM1139.58 119.088L1138.26 119.58L1139.56 123.076L1138.96 123.3L1137.66 119.804L1136.36 120.29L1136.16 119.774L1139.39 118.572L1139.58 119.088ZM1141.66 117.65C1142.14 117.472 1142.53 117.447 1142.84 117.575C1143.16 117.703 1143.4 118.003 1143.57 118.474L1144.59 121.201L1144.15 121.366L1143.81 120.817L1143.78 120.827C1143.72 121.016 1143.65 121.183 1143.57 121.328C1143.48 121.471 1143.37 121.598 1143.23 121.71C1143.09 121.818 1142.9 121.915 1142.67 122.001C1142.42 122.092 1142.19 122.131 1141.97 122.116C1141.75 122.101 1141.55 122.027 1141.38 121.895C1141.21 121.761 1141.07 121.562 1140.97 121.296C1140.82 120.896 1140.87 120.529 1141.1 120.196C1141.34 119.863 1141.78 119.566 1142.42 119.304L1143.1 119.017L1143.01 118.772C1142.88 118.425 1142.72 118.21 1142.52 118.127C1142.31 118.043 1142.08 118.052 1141.81 118.153C1141.6 118.231 1141.41 118.336 1141.24 118.468C1141.07 118.6 1140.92 118.739 1140.78 118.886L1140.42 118.495C1140.57 118.334 1140.75 118.178 1140.96 118.025C1141.17 117.871 1141.4 117.747 1141.66 117.65ZM1143.25 119.448L1142.65 119.702C1142.16 119.908 1141.84 120.121 1141.69 120.341C1141.54 120.562 1141.51 120.804 1141.61 121.067C1141.69 121.296 1141.83 121.44 1142.01 121.498C1142.19 121.556 1142.39 121.542 1142.62 121.457C1142.98 121.324 1143.23 121.116 1143.38 120.834C1143.54 120.552 1143.54 120.213 1143.39 119.818L1143.25 119.448Z" fill="white"/>
</svg>
