<svg width="78" height="100" viewBox="0 0 78 100" fill="none" xmlns="http://www.w3.org/2000/svg">
<path fill-rule="evenodd" clip-rule="evenodd" d="M41.84 89.11C41.5005 90.4469 40.9896 91.7342 40.32 92.94C39.4898 94.5749 38.2106 95.939 36.6324 96.8725C35.0542 97.8059 33.2426 98.2699 31.41 98.21C29.5774 98.2699 27.7658 97.8059 26.1876 96.8725C24.6094 95.939 23.3302 94.5749 22.5 92.94C21.8314 91.736 21.3269 90.4479 21 89.11C20.93 88.85 20.87 88.6 20.83 88.39H42C41.9674 88.6361 41.907 88.8776 41.82 89.11H41.84ZM44.21 86.18C43.8912 86.4576 43.4827 86.6103 43.06 86.61H19.72C19.3006 86.6191 18.8933 86.4691 18.58 86.19C18.3046 85.9496 18.1081 85.6318 18.0159 85.278C17.9237 84.9242 17.9402 84.5509 18.0632 84.2067C18.1863 83.8624 18.4101 83.5632 18.7056 83.348C19.0011 83.1328 19.3546 83.0115 19.72 83H43C43.3116 82.9973 43.6184 83.0773 43.889 83.2319C44.1595 83.3865 44.3842 83.6102 44.54 83.88C44.7103 84.1493 44.8004 84.4615 44.8 84.78C44.8138 85.0447 44.7658 85.309 44.66 85.5519C44.5541 85.7949 44.3932 86.0099 44.19 86.18H44.21ZM47.55 79.46C47.5474 79.9357 47.3565 80.391 47.0193 80.7264C46.682 81.0618 46.2257 81.2501 45.75 81.25H17C16.5266 81.2859 16.0583 81.1321 15.6983 80.8227C15.3382 80.5133 15.1158 80.0735 15.08 79.6C15.0442 79.1266 15.1979 78.6584 15.5074 78.2983C15.8168 77.9382 16.2566 77.7159 16.73 77.68C16.8197 77.6701 16.9103 77.6701 17 77.68H45.72C45.9551 77.6787 46.1881 77.7237 46.4058 77.8125C46.6234 77.9012 46.8215 78.032 46.9887 78.1972C47.1558 78.3625 47.2888 78.5591 47.3799 78.7758C47.4711 78.9925 47.5187 79.225 47.52 79.46H47.55ZM62.76 42H61H62.76ZM32.27 13.52V11.71V13.52ZM73.51 4.47965e-05H50.2C49.0136 -0.00261533 47.8745 0.465467 47.0328 1.30159C46.191 2.13772 45.7153 3.27361 45.71 4.46004V9.84004C44.6501 9.91436 43.6231 10.2397 42.7138 10.7891C41.8044 11.3385 41.0388 12.0964 40.48 13C40.4307 13.0607 40.3903 13.128 40.36 13.2L39.72 14.7C39.4324 15.6665 39.3663 16.6854 39.5266 17.6809C39.687 18.6764 40.0696 19.623 40.6461 20.4503C41.2226 21.2775 41.9782 21.9643 42.8566 22.4594C43.735 22.9545 44.7137 23.2452 45.72 23.31V32.25H55.6V31.36C55.6748 30.1289 56.1368 28.9529 56.92 28C57.3214 27.5618 57.7671 27.1664 58.25 26.82C59.1831 26.2384 60.2605 25.9301 61.36 25.93C62.826 25.9256 64.2395 26.4756 65.317 27.4697C66.3946 28.4638 67.0565 29.8284 67.17 31.29C67.18 31.4399 67.18 31.5902 67.17 31.74C67.18 31.8865 67.18 32.0336 67.17 32.18H73.47C74.0646 32.188 74.6548 32.0773 75.206 31.8544C75.7573 31.6314 76.2585 31.3008 76.6804 30.8817C77.1022 30.4626 77.4362 29.9636 77.6628 29.4139C77.8894 28.8641 78.004 28.2747 78 27.68V4.46004C77.9987 3.87219 77.8814 3.29037 77.655 2.74789C77.4285 2.20541 77.0972 1.71294 76.6802 1.29866C76.2631 0.884375 75.7684 0.556429 75.2244 0.333594C74.6804 0.11076 74.0979 -0.00258688 73.51 4.47965e-05ZM76.2 27.68C76.1947 28.3909 75.9093 29.0711 75.4057 29.5728C74.9021 30.0746 74.2209 30.3574 73.51 30.36H68.91C68.7297 29.3717 68.3557 28.4289 67.8096 27.5856C67.2635 26.7424 66.5561 26.0155 65.728 25.4467C64.8999 24.8779 63.9675 24.4785 62.9845 24.2714C62.0015 24.0643 60.9872 24.0537 60 24.24C59.0402 24.411 58.1231 24.7677 57.3 25.29L56 26.38C54.9573 27.466 54.2612 28.8374 54 30.32H47.51V21.53L45.83 21.42C45.0948 21.3766 44.379 21.1676 43.7359 20.8087C43.0928 20.4498 42.539 19.9503 42.116 19.3475C41.6929 18.7447 41.4115 18.0541 41.2927 17.3273C41.174 16.6004 41.2209 15.8562 41.43 15.15C41.5498 14.5501 41.8297 13.9938 42.24 13.54C42.6703 12.9861 43.2122 12.5289 43.8307 12.1981C44.4492 11.8673 45.1304 11.6704 45.83 11.62L47.51 11.51V4.51005C47.5113 4.1581 47.5819 3.80986 47.7178 3.48521C47.8537 3.16056 48.0522 2.86585 48.302 2.61792C48.5518 2.36999 48.848 2.17368 49.1736 2.04022C49.4993 1.90675 49.8481 1.83873 50.2 1.84004H73.51C74.22 1.84003 74.9012 2.12069 75.4051 2.62084C75.909 3.121 76.1947 3.80008 76.2 4.51005V27.68ZM53.77 42C53.6222 39.8465 52.6624 37.8293 51.0846 36.3561C49.5068 34.8829 47.4286 34.0635 45.27 34.0635C43.1114 34.0635 41.0332 34.8829 39.4554 36.3561C37.8776 37.8293 36.9178 39.8465 36.77 42H32.27V35.58L31.82 35.65H30C29.8709 35.6504 29.7427 35.6302 29.62 35.59H29.5C29.3277 35.5561 29.1575 35.5127 28.99 35.46H28.85C28.6616 35.4083 28.4776 35.3414 28.3 35.26C28.0969 35.181 27.8997 35.0875 27.71 34.98C27.5377 34.8897 27.3708 34.7895 27.21 34.68L27.12 34.62C26.9518 34.5114 26.7914 34.3911 26.64 34.26C26.4842 34.1408 26.3371 34.0104 26.2 33.87L26.13 33.8C26.03 33.7 25.93 33.59 25.84 33.48C25.6441 33.2715 25.4699 33.0437 25.32 32.8C25.2306 32.6796 25.1504 32.5525 25.08 32.42C25.0411 32.3668 25.0077 32.3099 24.98 32.25C24.8893 32.0937 24.8123 31.9297 24.75 31.76C24.3278 30.8048 24.1376 29.7632 24.195 28.7204C24.2524 27.6777 24.5556 26.6632 25.08 25.76C25.1504 25.6276 25.2306 25.5005 25.32 25.38C25.5298 25.0424 25.7781 24.7303 26.06 24.45L26.32 24.19L26.55 23.99C26.6885 23.8594 26.8392 23.7422 27 23.64L27.36 23.4C27.4206 23.3507 27.488 23.3103 27.56 23.28L27.83 23.14C28.104 22.9964 28.3881 22.8727 28.68 22.77C28.8331 22.7096 28.9902 22.6595 29.15 22.62C29.1826 22.61 29.2174 22.61 29.25 22.62C29.4342 22.5695 29.6212 22.5294 29.81 22.5C30.03 22.5 30.24 22.44 30.46 22.42C30.6098 22.41 30.7602 22.41 30.91 22.42H31.66C31.86 22.42 32.06 22.48 32.26 22.52V11.71H30.48C22.5614 12.1203 15.0726 15.4378 9.4483 21.027C3.824 26.6162 0.459717 34.0842 0 42L0 43.79C0.167785 49.3808 1.83395 54.8238 4.82441 59.5505C7.81486 64.2772 12.0198 68.114 17 70.66V75.89C16.0955 75.9049 15.2302 76.2616 14.578 76.8885C13.9258 77.5153 13.5351 78.3658 13.4844 79.269C13.4337 80.1722 13.7269 81.0611 14.3049 81.757C14.8828 82.4529 15.7028 82.9041 16.6 83.02C16.3646 83.4244 16.2113 83.8713 16.1487 84.335C16.0862 84.7987 16.1156 85.2702 16.2354 85.7225C16.3552 86.1748 16.563 86.599 16.847 86.971C17.1309 87.3429 17.4853 87.6552 17.89 87.89C18.2376 88.081 18.6117 88.2192 19 88.3C19.47 90.8801 21.81 100 31.44 100C41.07 100 43.44 90.8801 43.88 88.3C44.6729 88.1249 45.3824 87.6847 45.8915 87.052C46.4005 86.4194 46.6786 85.6321 46.68 84.82C46.681 84.1856 46.5081 83.563 46.18 83.02C47.0772 82.9041 47.8972 82.4529 48.4752 81.757C49.0531 81.0611 49.3463 80.1722 49.2956 79.269C49.2449 78.3658 48.8542 77.5153 48.202 76.8885C47.5498 76.2616 46.6845 75.9049 45.78 75.89V70.66C50.766 68.1107 54.9748 64.2677 57.9656 59.5334C60.9565 54.7991 62.6193 49.3476 62.78 43.75C62.79 43.6838 62.79 43.6163 62.78 43.55V42.86C62.78 42.57 62.78 42.29 62.78 42H53.77ZM30.43 13.44V20.55C28.2548 20.6558 26.2037 21.5943 24.7016 23.1711C23.1995 24.748 22.3617 26.8423 22.3617 29.02C22.3617 31.1978 23.1995 33.2921 24.7016 34.8689C26.2037 36.4458 28.2548 37.3843 30.43 37.49V42H24C24.0916 42.4409 24.1385 42.8898 24.14 43.34V43.79C24.1492 44.0096 24.1222 44.2292 24.06 44.44C24.0505 44.6277 24.0305 44.8147 24 45C24.01 45.0326 24.01 45.0675 24 45.1C23.9606 45.2599 23.9105 45.4169 23.85 45.57C23.8294 45.6454 23.8026 45.719 23.77 45.79L23.65 46.08C23.6027 46.1896 23.5493 46.2965 23.49 46.4C23.49 46.48 23.41 46.56 23.36 46.64C23.299 46.7724 23.2217 46.8967 23.13 47.01C23.1127 47.0502 23.0891 47.0873 23.06 47.12C22.9681 47.2681 22.8644 47.4086 22.75 47.54L22.66 47.65C22.5883 47.7471 22.508 47.8375 22.42 47.92C22.3383 48.0084 22.2515 48.0919 22.16 48.17C21.7253 48.5998 21.23 48.9636 20.69 49.25C20.5302 49.3408 20.3629 49.4178 20.19 49.48C19.3465 49.8493 18.4358 50.04 17.515 50.04C16.5942 50.04 15.6835 49.8493 14.84 49.48C14.6671 49.4178 14.4998 49.3408 14.34 49.25C13.8 48.9636 13.3047 48.5998 12.87 48.17C12.777 48.097 12.693 48.0131 12.62 47.92C12.5291 47.8373 12.4455 47.747 12.37 47.65C12.3378 47.6177 12.3108 47.5806 12.29 47.54C12.1593 47.3979 12.0421 47.2439 11.94 47.08C11.8202 46.9151 11.7133 46.7413 11.62 46.56C11.61 46.5275 11.61 46.4926 11.62 46.46C11.5308 46.3183 11.4571 46.1675 11.4 46.01L11.35 45.91C11.2811 45.7433 11.2211 45.5731 11.17 45.4V45.26C11.1112 45.095 11.0709 44.924 11.05 44.75C11.0402 44.714 11.0402 44.6761 11.05 44.64C11.0364 44.4986 11.013 44.3583 10.98 44.22C10.97 44.117 10.97 44.0131 10.98 43.91V42.66C10.9937 42.4375 11.0272 42.2166 11.08 42H1.83C2.27722 34.5648 5.43513 27.5516 10.7058 22.2883C15.9765 17.0249 22.9941 13.8769 30.43 13.44ZM30.43 75.87H18.83V69.21C13.995 66.8527 9.87302 63.2532 6.886 58.7797C3.89898 54.3062 2.15413 49.1194 1.83 43.75H9C9.14782 45.9036 10.1076 47.9208 11.6854 49.394C13.2632 50.8672 15.3414 51.6866 17.5 51.6866C19.6586 51.6866 21.7368 50.8672 23.3146 49.394C24.8924 47.9208 25.8522 45.9036 26 43.75H30.48V50C28.3048 50.1058 26.2537 51.0443 24.7516 52.6212C23.2495 54.198 22.4117 56.2923 22.4117 58.47C22.4117 60.6478 23.2495 62.7421 24.7516 64.3189C26.2537 65.8958 28.3048 66.8343 30.48 66.94V75.45C30.4933 75.5897 30.4933 75.7304 30.48 75.87H30.43ZM44.86 69.07L43.86 69.57V75.89H32.27V65.18H30.48C30.2603 65.1929 30.04 65.1658 29.83 65.1C29.6213 65.0673 29.4143 65.0239 29.21 64.97C29.0167 64.9234 28.8267 64.8634 28.64 64.79H28.54L28.15 64.62L27.91 64.51C27.7581 64.4399 27.6111 64.3598 27.47 64.27C27.3 64.16 27.12 64.05 26.96 63.93C26.8 63.81 26.63 63.68 26.48 63.55C26.3302 63.4202 26.1898 63.2799 26.06 63.13C25.7816 62.8166 25.5275 62.4823 25.3 62.13C25.1905 61.9589 25.0904 61.782 25 61.6C24.5083 60.6477 24.2512 59.5918 24.25 58.52C24.2336 57.6587 24.3865 56.8025 24.7 56C24.7804 55.7926 24.8774 55.5919 24.99 55.4C25.0836 55.2179 25.1871 55.041 25.3 54.87C25.411 54.6971 25.5311 54.5301 25.66 54.37C25.77 54.22 25.9 54.08 26.02 53.94C26.038 53.9119 26.0619 53.888 26.09 53.87L26.36 53.61C26.4385 53.5283 26.522 53.4515 26.61 53.38C26.7599 53.2514 26.9168 53.1312 27.08 53.02C27.1652 52.9532 27.2555 52.893 27.35 52.84L27.68 52.64L27.8 52.58C27.9719 52.4775 28.1526 52.3905 28.34 52.32L28.84 52.13L29.08 52.06C29.2125 52.0115 29.35 51.978 29.49 51.96C29.5606 51.9329 29.6347 51.9161 29.71 51.91H32.3V43.91H38.71C38.6184 43.4692 38.5715 43.0203 38.57 42.57C38.56 42.4202 38.56 42.2699 38.57 42.12C38.6677 40.415 39.41 38.8108 40.6465 37.6327C41.8829 36.4546 43.521 35.7906 45.2288 35.7754C46.9366 35.7601 48.5864 36.3947 49.8437 37.5505C51.101 38.7064 51.8718 40.297 52 42V42.45C51.9969 42.8997 51.9534 43.3482 51.87 43.79H61C60.828 49.0599 59.2429 54.1866 56.4105 58.6339C53.5782 63.0812 49.6027 66.6856 44.9 69.07H44.86ZM32.27 11.71V13.52V11.71Z" fill="url(#paint0_linear_1_9591)"/>
<defs>
<linearGradient id="paint0_linear_1_9591" x1="2.58" y1="31.14" x2="67.4" y2="56.05" gradientUnits="userSpaceOnUse">
<stop stop-color="#43CCF8"/>
<stop offset="1" stop-color="#6A30F4"/>
</linearGradient>
</defs>
</svg>
