<svg width="1084" height="181" viewBox="0 0 1084 181" fill="none" xmlns="http://www.w3.org/2000/svg">
<path d="M10 153L78.7061 99.0167C132.922 56.4181 210.007 56.8981 264.393 99.2804V99.2804C314.54 138.36 387.247 132.155 429.163 84.3537L439.493 72.5735C473.925 33.307 532.774 27.1484 574.589 58.4357L587.963 68.4422C620.366 92.6872 664.188 95.0117 698.974 74.3308L741.939 48.788C779.024 26.7405 826.467 33.5644 855.835 65.17L869.846 80.2485C915.061 128.909 994.906 117.717 1025 58.5V58.5C1037.5 33 1058 8.5 1073.5 10.5" stroke="#CFCFCF" stroke-width="20" stroke-linecap="round" stroke-linejoin="round"/>
<path d="M10 153L78.7061 99.0167C132.922 56.4181 210.007 56.8981 264.393 99.2804V99.2804C314.54 138.36 387.247 132.155 429.163 84.3537L439.493 72.5735C473.925 33.307 532.774 27.1484 574.589 58.4357L587.963 68.4422C620.366 92.6872 664.188 95.0117 698.974 74.3308L741.939 48.788C779.024 26.7405 826.467 33.5644 855.835 65.17L869.846 80.2485C915.061 128.909 994.906 117.717 1025 58.5V58.5C1027 54 1040.5 26.5 1056.5 16.5" stroke="white" stroke-linecap="round" stroke-linejoin="round" stroke-dasharray="10 10"/>
<circle cx="10" cy="153" r="9" fill="white" stroke="#B0AFAF" stroke-width="2"/>
</svg>
